<svg version="1.1" id="Layer_1" xmlns="http://www.w3.org/2000/svg" xmlns:xlink="http://www.w3.org/1999/xlink" x="0px" y="0px"
	 width="100%" viewBox="0 0 1024 1024" enable-background="new 0 0 1024 1024" xml:space="preserve">
<path fill="#000000" opacity="1.000000" stroke="none" 
	d="
M756.332275,596.871948 
	C761.319092,657.432800 742.233826,709.286438 702.743835,754.215454 
	C667.133484,794.730286 622.393372,819.897400 570.490967,832.944519 
	C542.505615,839.979492 513.919800,841.945618 485.267212,840.103577 
	C440.439362,837.221680 398.020905,825.570312 359.830261,801.156006 
	C322.845795,777.512817 293.701508,746.951477 278.118042,705.061584 
	C270.654663,684.999207 267.435364,664.100037 268.859558,642.787964 
	C271.011353,610.587402 282.279236,581.701660 301.541290,555.684814 
	C318.833557,532.328674 340.679657,513.473083 361.073059,493.146332 
	C377.981720,476.292999 392.325287,457.637543 399.469574,434.328857 
	C403.754852,420.347961 405.867401,406.185822 404.109436,391.530945 
	C403.033478,382.561859 411.470398,376.296417 419.886108,379.675720 
	C432.220032,384.628387 441.324280,393.717621 449.206268,403.927246 
	C466.030640,425.720032 474.834442,450.431946 474.242767,478.128448 
	C473.978546,490.496765 471.420044,502.526642 467.344360,514.222229 
	C466.483032,516.693970 465.795959,519.226440 465.351410,521.929626 
	C478.080353,508.434814 490.698456,494.949707 504.270294,482.403290 
	C517.503479,470.169952 530.092529,457.364960 540.595947,442.614716 
	C553.331970,424.729065 560.755371,405.063995 562.971558,383.099762 
	C564.617004,366.792694 562.327271,350.950836 560.156555,334.984222 
	C559.442871,329.735352 558.090332,323.996857 563.509583,320.363220 
	C568.885620,316.758484 574.257690,318.981995 578.917542,322.118286 
	C622.219055,351.262543 650.729553,390.618164 660.010620,442.510498 
	C666.857849,480.794128 659.664368,517.266479 643.178833,552.139587 
	C639.904785,559.065430 636.567810,565.961487 633.284241,572.882935 
	C632.591614,574.342896 631.677490,575.767944 632.047913,577.892151 
	C637.589172,575.014771 641.689758,570.623352 646.089111,566.684387 
	C661.486084,552.898865 674.901611,537.551941 683.299377,518.355408 
	C686.450806,511.151703 688.627869,503.681854 689.746826,495.893921 
	C689.982178,494.255737 690.413513,492.629913 690.911987,491.048004 
	C693.513062,482.793945 701.201599,480.275574 708.225830,485.543335 
	C713.200684,489.274261 717.038696,494.162262 720.626648,499.182739 
	C739.790771,525.998291 751.130127,555.880859 755.411987,588.500427 
	C755.757446,591.131531 756.023926,593.772949 756.332275,596.871948 
M584.363647,365.184326 
	C585.297241,381.277374 583.364929,397.044159 578.870422,412.500641 
	C571.825867,436.726746 558.501343,457.314484 541.228638,475.312164 
	C524.622620,492.615265 507.391663,509.319397 490.404816,526.256104 
	C473.102844,543.507080 457.785553,562.347961 445.292816,583.363831 
	C423.113007,620.675659 419.057556,659.461243 436.315002,699.876953 
	C439.215240,706.669067 443.803558,712.471619 447.081940,719.008484 
	C449.799255,724.426453 448.234955,730.223816 443.787140,733.257629 
	C438.917480,736.579163 433.357971,735.787415 428.983734,731.058167 
	C427.859161,729.842346 426.828247,728.502136 425.960510,727.092163 
	C412.513214,705.243225 405.210754,681.404114 403.795471,655.875061 
	C402.444092,631.498657 406.470947,607.817993 414.393188,584.756409 
	C420.746277,566.262573 430.161377,549.143372 438.162537,531.389771 
	C447.773376,510.064362 454.370056,488.215149 451.801910,464.322693 
	C449.807678,445.769348 442.191498,429.865204 430.644806,415.605743 
	C428.024567,412.369995 426.067261,412.972290 425.040833,417.228821 
	C424.031372,421.414948 423.575195,425.732513 422.618408,429.933685 
	C415.075531,463.053528 395.852234,489.028564 372.001160,512.081726 
	C353.679504,529.790466 334.722382,546.879089 319.449432,567.473816 
	C289.443054,607.935730 281.932373,652.003357 299.385468,699.487793 
	C312.165558,734.258423 336.243713,760.117493 366.850098,780.115295 
	C402.605927,803.477600 442.185181,815.834290 484.619080,818.469238 
	C507.867310,819.912842 531.209900,819.115051 554.192871,814.489197 
	C604.404236,804.382935 648.093506,782.058044 683.183838,744.286011 
	C721.917053,702.592712 740.270569,653.642700 734.753418,596.395081 
	C732.168457,569.572266 723.673462,544.800720 709.733032,521.825562 
	C708.976196,520.578247 708.361633,519.076111 706.487305,519.004822 
	C705.109192,519.579468 704.772461,520.924194 704.344788,522.160583 
	C698.054138,540.350220 686.688904,555.237854 673.780579,569.112488 
	C660.718872,583.151855 645.316101,594.818665 632.659973,609.239929 
	C618.632446,625.223999 609.869690,643.399414 610.135071,665.330933 
	C610.228638,673.055359 611.393127,680.555481 612.533752,688.100281 
	C613.297119,693.150330 611.558350,696.493225 606.788635,698.316772 
	C602.108521,700.106140 597.956848,698.851379 595.036865,694.582886 
	C593.325012,692.080444 592.336792,689.247681 591.660522,686.305725 
	C587.226013,667.016418 587.505981,647.634888 591.358643,628.368408 
	C596.955200,600.380493 608.409668,574.470520 620.905701,549.033936 
	C636.040649,518.225525 644.707764,486.263062 639.697815,451.626129 
	C634.367371,414.773132 617.552185,383.948700 590.616455,358.474274 
	C589.076477,357.017883 587.527954,355.313080 584.355896,356.654602 
	C584.355896,359.055115 584.355896,361.679047 584.363647,365.184326 
z"/>
<path fill="#000000" opacity="1.000000" stroke="none" 
	d="
M502.071808,183.676620 
	C504.174683,176.337067 507.654877,173.704742 513.881165,174.414429 
	C520.572327,175.177094 523.950684,179.021851 524.346863,186.120499 
	C525.291626,203.045197 530.867371,217.642654 545.445801,227.649933 
	C552.812317,232.706650 561.391663,234.084854 569.899536,235.650284 
	C572.348389,236.100830 574.856079,236.255096 577.286316,236.779114 
	C583.316650,238.079437 586.312134,241.734329 586.322571,247.565353 
	C586.332825,253.304459 583.281372,256.990112 577.102722,258.171661 
	C572.384644,259.073914 567.527588,259.297363 562.846191,260.335724 
	C541.556091,265.058136 527.717041,280.627686 525.307373,302.274445 
	C524.995239,305.078491 524.524048,307.870911 524.346313,310.682587 
	C523.905212,317.660156 519.899780,322.120667 513.754333,322.291962 
	C507.275421,322.472534 502.134308,317.677429 501.741394,310.801575 
	C501.223175,301.733185 499.430054,293.006287 495.361847,284.833588 
	C487.627014,269.294861 474.503174,261.665375 457.793152,259.350037 
	C454.833771,258.939941 451.840668,258.735840 448.903412,258.211151 
	C443.011505,257.158691 439.555115,252.838120 439.714844,246.966629 
	C439.864990,241.447144 444.000885,237.235458 449.914185,236.677887 
	C460.895294,235.642471 471.563507,233.978500 481.124054,227.609100 
	C494.478271,218.712250 500.058258,205.819382 501.632019,190.571625 
	C501.853790,188.423264 501.855621,186.252197 502.071808,183.676620 
M517.872864,230.571045 
	C516.123779,228.729584 515.624878,225.755081 512.582947,224.579346 
	C508.072083,232.713287 502.365509,239.513947 494.627930,244.519577 
	C491.225891,246.720428 492.164856,249.180664 494.990509,251.261841 
	C500.531525,255.343002 505.349792,260.104218 509.223785,265.828949 
	C510.453217,267.645691 510.988037,270.091766 513.538940,271.332794 
	C518.457764,263.049438 524.064148,255.712326 532.146301,250.555298 
	C535.260132,248.568436 534.662781,246.427200 531.712830,244.407104 
	C526.459595,240.809769 521.855408,236.491959 517.872864,230.571045 
z"/>
</svg>